<svg width="20" height="20" xmlns="http://www.w3.org/2000/svg" xmlns:xlink="http://www.w3.org/1999/xlink"><defs><circle id="a" cx="8.808" cy="9.099" r="8.75"/><path d="M9.002 4.516c-3.153-.018-3.107 3.06-3.086 3.633-.584.686-.98 2.347-.825 2.373.38.06.64-.138.825-.338.1-.11.111-.08.147.017.032.093.337.68.425.816.075.117.052.176-.086.203-.138.025-.331.142-.46.319-.21.289-.001.575.424.714 1.232.4 2.17.013 2.25-.035.02-.013.175-.062.21-.075l.169-.011c.13 0 .2.024.2.024.09.026.142.051.24.087.088.031 1.066.41 2.268-.016.393-.137.567-.394.392-.648a.846.846 0 0 0-.518-.369c-.114-.03-.135-.06-.07-.152.092-.128.379-.705.415-.797.036-.086.072-.197.151-.081.15.217.573.456.841.342.25-.108-.328-1.759-.81-2.398.018-.572.052-3.626-3.102-3.608z" id="c"/><filter x="-6.9%" y="-6.3%" width="112.8%" height="112.7%" filterUnits="objectBoundingBox" id="d"><feOffset in="SourceAlpha" result="shadowOffsetInner1"/><feComposite in="shadowOffsetInner1" in2="SourceAlpha" operator="arithmetic" k2="-1" k3="1" result="shadowInnerInner1"/><feColorMatrix values="0 0 0 0 0.992159194 0 0 0 0 0.677217038 0 0 0 0 0.051422885 0 0 0 1 0" in="shadowInnerInner1"/></filter></defs><g transform="translate(1.192 .484)" fill="none" fill-rule="evenodd"><path d="M17.496 9.57l.004-.053A8.75 8.75 0 0 1 .027 9.065a8.75 8.75 0 1 0 17.469.504l.004-.052-.004.053z" fill="#EA9D06"/><mask id="b" fill="#fff"><use xlink:href="#a"/></mask><use fill="#FFE127" xlink:href="#a"/><path d="M17.42 7.83l.007-.037a8.75 8.75 0 1 1-17.239 0c.701 3.424 4.138 3.79 8.318 3.805h.615c4.108-.015 7.496-.372 8.27-3.643l.036-.162-.008.036z" fill="#FEBD1A" opacity=".447" style="mix-blend-mode:multiply" mask="url(#b)"/><circle fill="#FFE127" mask="url(#b)" cx="8.808" cy="9.099" r="6.667"/><path d="M8.808 15.766c3.208 0 5.613-2.19 6.25-5.209.208-.833-2.36-1.666-6.042-1.666s-6.667.833-6.458 1.666c.682 2.958 3.042 5.209 6.25 5.209z" fill="#FEBD1A" opacity=".447" style="mix-blend-mode:multiply" mask="url(#b)"/><path d="M.058 7.849c0-.833 1.666-5 2.291-3.57.625 1.429.209 2.5 0 3.333-.065.262-.348-.784-.833-1.042C1.076 6.336.058 8.19.058 7.85z" fill="#FFEC4C" mask="url(#b)"/><path d="M8.061 2.681c0-.833 1.709-3.946 2.791-2.877 1.083 1.07-.521 3.292-.938 3.917-.128.192.625-1.173-.208-1.382-.46-.114-1.645.682-1.645.342z" fill="#FFEC4C" mask="url(#b)" transform="rotate(-108 9.641 1.662)"/><path d="M7.245 6.485C9.736 5.047 10.87 2.346 9.777.453c-1.094-1.893-4.52.541-7.011 1.98l-.243.138C.236 3.866-.3 3.831.755 5.661c1.094 1.894 4 2.263 6.49.824z" fill="#FFEC4C" mask="url(#b)"/><ellipse fill="#FFFCD0" style="mix-blend-mode:overlay" mask="url(#b)" transform="rotate(-30 5.058 2.376)" cx="5.058" cy="2.376" rx="1.875" ry="1.25"/><g mask="url(#b)"><use fill="#FEBD1A" xlink:href="#c"/><use fill="#000" filter="url(#d)" xlink:href="#c"/><path stroke="#FFE127" stroke-width=".5" d="M13.214 10.196c-.682.423-.953.411-1.111.346-.044.628.08.73.195.892-.023.834-.247.936-.511 1.028a3.677 3.677 0 0 1-2.382.036c-.256.006-.507.043-.767.081-.694.101-1.447.205-2.35-.088-.29-.095-.493-.251-.594-.42.116-.703.286-.917.436-1.014-.539-.331-.773-.24-1.077-.288-.171-.902-.09-1.206.02-1.521.149-.43.355-.877.59-1.184-.01-.495.033-1.84.833-2.782C6.99 4.7 7.766 4.259 9 4.266c1.237-.007 2.015.43 2.511 1.008.808.94.852 2.286.843 2.772.244.352.504.921.674 1.423.094.279.16.537.185.727z"/></g><path d="M8.808 2.432c3.682 0 6.666 2.799 6.666 6.25 0 .14-.005.28-.014.417-.229-3.257-3.12-5.833-6.652-5.833-3.533 0-6.424 2.575-6.652 5.833a5.92 5.92 0 0 1-.015-.417c0-3.451 2.985-6.25 6.667-6.25z" fill="#FEBD1A" mask="url(#b)"/><path d="M8.808 15.766c3.682 0 6.666-2.798 6.666-6.25 0-.14-.005-.28-.014-.417-.229 3.258-3.12 5.834-6.652 5.834-3.533 0-6.424-2.576-6.652-5.833a5.92 5.92 0 0 0-.015.416c0 3.452 2.985 6.25 6.667 6.25z" fill="#FFE523" mask="url(#b)"/><path d="M14.056 13.381c-1.064 1.26-2.635 2.127-4.425 2.33-.615.055-.823-.362-.407-.8 1.75-.097 3.32-.826 4.45-1.949.276-.253.46-.29.55-.113.136.266-.168.532-.168.532z" fill="#FFFE7B" opacity=".754" mask="url(#b)"/></g></svg>