<svg width="120" height="72" xmlns="http://www.w3.org/2000/svg" xmlns:xlink="http://www.w3.org/1999/xlink"><defs><path d="M114.488 17a.3.3 0 01.3.3v.9a.3.3 0 01-.3.3h-17.4a.3.3 0 01-.3-.3v-.9a.3.3 0 01.3-.3h17.4zm-4.41-15.847l.054.044 3.613 3.638a.3.3 0 010 .423L103.382 15.62a.6.6 0 01-.424.176h-3.513a.3.3 0 01-.3-.3v-3.512a.6.6 0 01.176-.425l10.385-10.362a.3.3 0 01.37-.043zm-.163 1.954l-9.269 9.25v1.938h1.94l9.252-9.252-1.923-1.936z" id="a"/><path d="M114.488 17a.3.3 0 01.3.3v.9a.3.3 0 01-.3.3h-17.4a.3.3 0 01-.3-.3v-.9a.3.3 0 01.3-.3h17.4zm-4.41-15.847l.054.044 3.613 3.638a.3.3 0 010 .423L103.382 15.62a.6.6 0 01-.424.176h-3.513a.3.3 0 01-.3-.3v-3.512a.6.6 0 01.176-.425l10.385-10.362a.3.3 0 01.37-.043zm-.163 1.954l-9.269 9.25v1.938h1.94l9.252-9.252-1.923-1.936z" id="b"/></defs><g fill="none" fill-rule="evenodd"><g fill="#4574FF" fill-rule="nonzero"><path d="M86.25 51.5a7.75 7.75 0 010 15.5H84l-.691 1.728a1 1 0 01-1.125.609L80.5 69a8.386 8.386 0 01-6.5-8.17V59.5a8 8 0 018-8h4.25zm-6.25 7a1 1 0 100 2 1 1 0 000-2zm4 0a1 1 0 100 2 1 1 0 000-2zm4 0a1 1 0 100 2 1 1 0 000-2zM12.443 50.363a1 1 0 01.454.454l2.483 5.031 5.552.807a1 1 0 01.554 1.706l-4.017 3.916.948 5.53a1 1 0 01-1.45 1.054L12 66.25l-4.966 2.61a1 1 0 01-1.451-1.053l.948-5.53-4.017-3.916a1 1 0 01.554-1.706l5.552-.807 2.483-5.031a1 1 0 011.34-.454z"/></g><g transform="translate(2.212 26)" fill="#FFF"><use xlink:href="#a"/><path d="M84.038 1.5a7.75 7.75 0 010 15.5h-2.25l-.69 1.728a1 1 0 01-1.125.609L78.288 19a8.386 8.386 0 01-6.5-8.17V9.5a8 8 0 018-8h4.25zm0 1.5h-4.25a6.5 6.5 0 00-6.498 6.347l-.002.153v1.33c0 3.151 2.139 5.893 5.138 6.661l.156.038 1.277.255.914-2.284h3.265a6.25 6.25 0 00.154-12.498L84.038 3zm-6.25 5.5a1 1 0 110 2 1 1 0 010-2zm4 0a1 1 0 110 2 1 1 0 010-2zm4 0a1 1 0 110 2 1 1 0 010-2zM57.788 1.257v1.001a.25.25 0 01-.24.25c-.26.01-.46.023-.604.039a7.501 7.501 0 108.293 8.331c.015-.126.029-.34.042-.639a.25.25 0 01.25-.239h1.002a.25.25 0 01.25.25v.008c-.01.267-.02.474-.035.622a9.001 9.001 0 11-9.8-9.841c.14-.013.335-.024.584-.032a.25.25 0 01.258.25zm7-.257a2 2 0 012 2v3.75a.25.25 0 01-.25.25h-1a.25.25 0 01-.25-.25V3.558l-7.785 7.786a.25.25 0 01-.354 0l-.707-.707a.25.25 0 010-.353L64.225 2.5h-3.187a.25.25 0 01-.25-.25v-1a.25.25 0 01.25-.25h3.75zM32.288 0c4.648 0 8.5 3.302 8.5 7.5 0 .146-.004.291-.014.435l.178.068c2.245.89 3.836 2.875 3.836 5.247 0 1.297-.485 2.516-1.336 3.499l-.034.037.329 1.363c.298 1.24-.989 2.263-2.13 1.693l-1.946-.973-.132.025c-.327.056-.66.09-.997.102l-.254.004c-2.883 0-5.381-1.668-6.21-4.035l.012.033a9.515 9.515 0 01-2.556-.4l-.244-.077-.083-.029-2.335.987c-1.07.451-2.212-.429-2.073-1.56l.012-.082.381-2.201-.126-.174A6.871 6.871 0 0123.8 7.89l-.008-.203-.003-.187c0-4.198 3.853-7.5 8.5-7.5zm6 9c-2.761 0-5 1.903-5 4.25s2.239 4.25 5 4.25c.55 0 1.077-.075 1.571-.214l2.43 1.214-.528-2.192c.942-.773 1.527-1.857 1.527-3.058 0-2.347-2.238-4.25-5-4.25zm-6-7.5c-3.866 0-7 2.686-7 6 0 1.396.557 2.681 1.49 3.7a6.01 6.01 0 01-.068.452l-.028.171-.394 2.274 2.89-1.22c.798.34 1.681.552 2.616.608l-.001-.02-.005-.215c0-3.235 2.96-5.75 6.5-5.75.359 0 .712.026 1.056.076l-.057-.008.001-.068c0-3.314-3.134-6-7-6zm4 10a1 1 0 110 2 1 1 0 010-2zm4 0a1 1 0 110 2 1 1 0 010-2zM29.788 5a1 1 0 110 2 1 1 0 010-2zm5.5 0a1 1 0 110 2 1 1 0 010-2zM10.23.363a1 1 0 01.455.454l2.483 5.031 5.552.807a1 1 0 01.554 1.706l-4.017 3.916.948 5.53a1 1 0 01-1.45 1.054L9.787 16.25l-4.966 2.61a1 1 0 01-1.45-1.053l.948-5.53L.302 8.36a1 1 0 01.554-1.706l5.552-.807L8.891.817a1 1 0 011.34-.454zm1.942 6.856L9.788 2.39l-2.383 4.83-5.331.774 3.857 3.76-.91 5.308 4.767-2.506 4.767 2.506-.91-5.308 3.857-3.76-5.33-.774z" fill-rule="nonzero"/></g><g transform="translate(2.212 2)" fill="#000"><use xlink:href="#b"/><path d="M84.038 1.5a7.75 7.75 0 010 15.5h-2.25l-.69 1.728a1 1 0 01-1.125.609L78.288 19a8.386 8.386 0 01-6.5-8.17V9.5a8 8 0 018-8h4.25zm0 1.5h-4.25a6.5 6.5 0 00-6.498 6.347l-.002.153v1.33c0 3.151 2.139 5.893 5.138 6.661l.156.038 1.277.255.914-2.284h3.265a6.25 6.25 0 00.154-12.498L84.038 3zm-6.25 5.5a1 1 0 110 2 1 1 0 010-2zm4 0a1 1 0 110 2 1 1 0 010-2zm4 0a1 1 0 110 2 1 1 0 010-2zM57.788 1.257v1.001a.25.25 0 01-.24.25c-.26.01-.46.023-.604.039a7.501 7.501 0 108.293 8.331c.015-.126.029-.34.042-.639a.25.25 0 01.25-.239h1.002a.25.25 0 01.25.25v.008c-.01.267-.02.474-.035.622a9.001 9.001 0 11-9.8-9.841c.14-.013.335-.024.584-.032a.25.25 0 01.258.25zm7-.257a2 2 0 012 2v3.75a.25.25 0 01-.25.25h-1a.25.25 0 01-.25-.25V3.558l-7.785 7.786a.25.25 0 01-.354 0l-.707-.707a.25.25 0 010-.353L64.225 2.5h-3.187a.25.25 0 01-.25-.25v-1a.25.25 0 01.25-.25h3.75zM32.288 0c4.648 0 8.5 3.302 8.5 7.5 0 .146-.004.291-.014.435l.178.068c2.245.89 3.836 2.875 3.836 5.247 0 1.297-.485 2.516-1.336 3.499l-.034.037.329 1.363c.298 1.24-.989 2.263-2.13 1.693l-1.946-.973-.132.025c-.327.056-.66.09-.997.102l-.254.004c-2.883 0-5.381-1.668-6.21-4.035l.012.033a9.515 9.515 0 01-2.556-.4l-.244-.077-.083-.029-2.335.987c-1.07.451-2.212-.429-2.073-1.56l.012-.082.381-2.201-.126-.174A6.871 6.871 0 0123.8 7.89l-.008-.203-.003-.187c0-4.198 3.853-7.5 8.5-7.5zm6 9c-2.761 0-5 1.903-5 4.25s2.239 4.25 5 4.25c.55 0 1.077-.075 1.571-.214l2.43 1.214-.528-2.192c.942-.773 1.527-1.857 1.527-3.058 0-2.347-2.238-4.25-5-4.25zm-6-7.5c-3.866 0-7 2.686-7 6 0 1.396.557 2.681 1.49 3.7a6.01 6.01 0 01-.068.452l-.028.171-.394 2.274 2.89-1.22c.798.34 1.681.552 2.616.608l-.001-.02-.005-.215c0-3.235 2.96-5.75 6.5-5.75.359 0 .712.026 1.056.076l-.057-.008.001-.068c0-3.314-3.134-6-7-6zm4 10a1 1 0 110 2 1 1 0 010-2zm4 0a1 1 0 110 2 1 1 0 010-2zM29.788 5a1 1 0 110 2 1 1 0 010-2zm5.5 0a1 1 0 110 2 1 1 0 010-2zM10.23.363a1 1 0 01.455.454l2.483 5.031 5.552.807a1 1 0 01.554 1.706l-4.017 3.916.948 5.53a1 1 0 01-1.45 1.054L9.787 16.25l-4.966 2.61a1 1 0 01-1.45-1.053l.948-5.53L.302 8.36a1 1 0 01.554-1.706l5.552-.807L8.891.817a1 1 0 011.34-.454zm1.942 6.856L9.788 2.39l-2.383 4.83-5.331.774 3.857 3.76-.91 5.308 4.767-2.506 4.767 2.506-.91-5.308 3.857-3.76-5.33-.774z" fill-opacity=".85" fill-rule="nonzero"/></g></g></svg>