<svg width="16" height="16" xmlns="http://www.w3.org/2000/svg"><path d="M9.667 5.5c0 .46.373.833.833.833h1.556c.502 0 .889.44.827.937l-.625 5a.832.832 0 0 1-.827.73H7.167a.834.834 0 0 1-.834-.833V6.82c0-.324.04-.646.119-.96l.557-2.23A.833.833 0 0 1 7.817 3h1.016c.46 0 .834.373.834.833V5.5zM4.25 12.167a.625.625 0 1 0 0-1.25.625.625 0 0 0 0 1.25zm.417-5.834c.46 0 .833.374.833.834v5c0 .46-.373.833-.833.833h-.834A.834.834 0 0 1 3 12.167v-5c0-.46.373-.834.833-.834h.834z" fill="#9B9EA3" fill-rule="evenodd"/></svg>